<svg id="Layer_1" data-name="Layer 1" xmlns="http://www.w3.org/2000/svg" viewBox="0 0 117.17 48"><defs><style>.cls-1{fill:none;}.cls-2{isolation:isolate;}</style></defs><g id="Group_454" data-name="Group 454"><g id="Group_451" data-name="Group 451"><g id="Ellipse_6" data-name="Ellipse 6"><circle class="cls-1" cx="32.3" cy="24" r="24"/><path d="M32.3,48a24,24,0,1,1,24-24A24,24,0,0,1,32.3,48Zm0-44a20,20,0,1,0,20,20A20,20,0,0,0,32.3,4Z"/></g><g id="_" data-name=" " class="cls-2"><g class="cls-2"><path d="M35.17,28.58a2.59,2.59,0,0,0-.65-1.85,5.89,5.89,0,0,0-2.18-1.27,27.63,27.63,0,0,1-2.67-1.15A8.56,8.56,0,0,1,27.75,23a5.31,5.31,0,0,1-1.24-1.75,5.82,5.82,0,0,1-.45-2.39,5.3,5.3,0,0,1,1.53-3.92,6.47,6.47,0,0,1,4.07-1.79v-3h2.26v3.07a6,6,0,0,1,3.92,2.09,6.87,6.87,0,0,1,1.42,4.5H35.17a4,4,0,0,0-.7-2.54,2.34,2.34,0,0,0-1.88-.85,2.4,2.4,0,0,0-1.8.66,2.53,2.53,0,0,0-.63,1.82,2.37,2.37,0,0,0,.62,1.73,6.88,6.88,0,0,0,2.31,1.33,27.75,27.75,0,0,1,2.79,1.28,8.29,8.29,0,0,1,1.84,1.36,5.21,5.21,0,0,1,1.14,1.73,5.85,5.85,0,0,1,.4,2.26,5.3,5.3,0,0,1-1.5,3.91,6.59,6.59,0,0,1-4.14,1.77v2.82H31.37V34.24a6.79,6.79,0,0,1-4.49-2.06,6.67,6.67,0,0,1-1.6-4.65h4.1a3.73,3.73,0,0,0,.8,2.58,2.91,2.91,0,0,0,2.3.9,2.83,2.83,0,0,0,2-.66A2.27,2.27,0,0,0,35.17,28.58Z"/></g></g></g><g id="i" class="cls-2"><g class="cls-2"><path d="M0,18.71A2,2,0,0,1,.62,17.2a2.29,2.29,0,0,1,1.67-.6A2.29,2.29,0,0,1,4,17.2a2.15,2.15,0,0,1,0,3,2.33,2.33,0,0,1-1.67.6,2.3,2.3,0,0,1-1.66-.6A2,2,0,0,1,0,18.71ZM4.35,38H.24V22.68H4.35Z"/></g></g><g id="aveii" class="cls-2"><g class="cls-2"><path d="M68.32,38a4.72,4.72,0,0,1-.41-1.37A5,5,0,0,1,64,38.28,5.44,5.44,0,0,1,60.31,37a4.2,4.2,0,0,1-1.48-3.28A4.32,4.32,0,0,1,60.64,30a8.89,8.89,0,0,1,5.22-1.32h1.88v-.88a2.5,2.5,0,0,0-.55-1.7,2.14,2.14,0,0,0-1.72-.63,2.47,2.47,0,0,0-1.62.49,1.69,1.69,0,0,0-.58,1.36h-4.1A4.13,4.13,0,0,1,60,24.82,5.44,5.44,0,0,1,62.32,23a8.44,8.44,0,0,1,3.37-.64,6.66,6.66,0,0,1,4.49,1.42,5,5,0,0,1,1.67,4v6.64a7.31,7.31,0,0,0,.61,3.3V38Zm-3.38-2.85a3.52,3.52,0,0,0,1.67-.4,2.68,2.68,0,0,0,1.13-1.08V31H66.21q-3.07,0-3.27,2.13v.24a1.63,1.63,0,0,0,.53,1.26A2.1,2.1,0,0,0,64.94,35.15Z"/><path d="M80.51,33l2.85-10.32h4.27L82.47,38H78.56L73.39,22.68h4.28Z"/><path d="M96.3,38.28a7.57,7.57,0,0,1-5.49-2.06,7.36,7.36,0,0,1-2.11-5.51v-.4a9.21,9.21,0,0,1,.89-4.13,6.55,6.55,0,0,1,2.53-2.8,7,7,0,0,1,3.73-1,6.38,6.38,0,0,1,5,2A8.06,8.06,0,0,1,102.6,30v1.67H92.85A3.83,3.83,0,0,0,94,34.08a3.65,3.65,0,0,0,2.53.9,4.43,4.43,0,0,0,3.7-1.71l2,2.25a6.13,6.13,0,0,1-2.5,2A8.06,8.06,0,0,1,96.3,38.28ZM95.83,25.7a2.54,2.54,0,0,0-2,.82,4.23,4.23,0,0,0-1,2.36h5.69v-.33a3,3,0,0,0-.74-2.11A2.62,2.62,0,0,0,95.83,25.7Z"/><path d="M104.9,18.71a2,2,0,0,1,.61-1.51,2.64,2.64,0,0,1,3.35,0,2.16,2.16,0,0,1,0,3,2.6,2.6,0,0,1-3.32,0A2,2,0,0,1,104.9,18.71ZM109.24,38h-4.1V22.68h4.1Z"/><path d="M112.58,18.71a2,2,0,0,1,.62-1.51,2.64,2.64,0,0,1,3.35,0,2.16,2.16,0,0,1,0,3,2.6,2.6,0,0,1-3.32,0A2,2,0,0,1,112.58,18.71ZM116.93,38h-4.1V22.68h4.1Z"/></g></g></g></svg>